<svg width="16" height="16" viewBox="0 0 16 16" fill="none" xmlns="http://www.w3.org/2000/svg">
<g id="Group">
<path id="Vector" d="M6.58543 12.0813C7.36624 12.8627 8.63256 12.8631 9.41387 12.0822C9.41418 12.0819 9.41446 12.0817 9.41477 12.0813L11.5554 9.94069C11.8024 9.66759 11.7811 9.246 11.5081 8.99906C11.2538 8.76916 10.8666 8.76956 10.6128 9L8.66212 10.9513L8.66678 0.666687C8.66674 0.298469 8.36827 0 8.00009 0C7.6319 0 7.33343 0.298469 7.33343 0.666656L7.32743 10.9387L5.38743 9C5.12693 8.73969 4.70474 8.73984 4.44443 9.00034C4.18412 9.26084 4.18427 9.68303 4.44477 9.94334L6.58543 12.0813Z" fill="#3A5BFF"/>
<path id="Vector_2" d="M15.3333 10.6665C14.9652 10.6665 14.6667 10.965 14.6667 11.3332V13.9998C14.6667 14.368 14.3682 14.6665 14 14.6665H2C1.63181 14.6665 1.33334 14.368 1.33334 13.9998V11.3332C1.33334 10.965 1.03487 10.6665 0.666687 10.6665C0.298469 10.6665 0 10.965 0 11.3332V13.9998C0 15.1044 0.895437 15.9998 2 15.9998H14C15.1046 15.9998 16 15.1044 16 13.9998V11.3332C16 10.965 15.7015 10.6665 15.3333 10.6665Z" fill="#3A5BFF"/>
</g>
</svg>
