<svg width="4" height="16" viewBox="0 0 4 16" fill="none" xmlns="http://www.w3.org/2000/svg">
<g id="Group">
<path id="Vector" d="M1.99999 2.66669C2.73638 2.66669 3.33334 2.06973 3.33334 1.33334C3.33334 0.596958 2.73638 0 1.99999 0C1.2636 0 0.666641 0.596958 0.666641 1.33334C0.666641 2.06973 1.2636 2.66669 1.99999 2.66669Z" fill="#858D9D"/>
<path id="Vector_2" d="M1.99999 9.3332C2.73638 9.3332 3.33334 8.73624 3.33334 7.99985C3.33334 7.26346 2.73638 6.6665 1.99999 6.6665C1.2636 6.6665 0.666641 7.26346 0.666641 7.99985C0.666641 8.73624 1.2636 9.3332 1.99999 9.3332Z" fill="#858D9D"/>
<path id="Vector_3" d="M1.99999 16.0002C2.73638 16.0002 3.33334 15.4032 3.33334 14.6669C3.33334 13.9305 2.73638 13.3335 1.99999 13.3335C1.2636 13.3335 0.666641 13.9305 0.666641 14.6669C0.666641 15.4032 1.2636 16.0002 1.99999 16.0002Z" fill="#858D9D"/>
</g>
</svg>
